<?xml version="1.0" standalone="no"?>
<!DOCTYPE svg PUBLIC "-//W3C//DTD SVG 20010904//EN"
 "http://www.w3.org/TR/2001/REC-SVG-20010904/DTD/svg10.dtd">
<svg version="1.0" xmlns="http://www.w3.org/2000/svg"
 width="700.000000pt" height="700.000000pt" viewBox="0 0 700.000000 700.000000"
 preserveAspectRatio="xMidYMid meet">
<metadata>
Created by potrace 1.11, written by Peter Selinger 2001-2013
</metadata>
<g transform="translate(0.000000,700.000000) scale(0.100000,-0.100000)"
fill="#000000" stroke="none">
<path d="M470 3520 l0 -1355 568 1 c604 1 668 5 825 54 264 82 438 251 503
490 25 91 25 329 0 420 -41 152 -142 297 -265 379 -78 52 -168 92 -236 106
l-40 7 61 17 c195 55 319 179 371 372 23 88 23 290 -1 379 -58 215 -215 363
-462 435 -159 46 -193 48 -796 49 l-528 1 0 -1355z m1035 1046 c195 -23 297
-84 372 -222 6 -12 17 -50 23 -84 25 -138 -4 -272 -78 -362 -54 -65 -195 -122
-327 -134 -106 -9 -626 -11 -645 -3 -13 6 -15 59 -14 406 1 219 2 400 3 403 1
7 604 4 666 -4z m106 -1120 c242 -59 355 -169 386 -376 6 -41 5 -183 -2 -220
-38 -222 -181 -345 -435 -376 -63 -8 -709 -11 -719 -4 -4 3 -7 227 -6 498 l0
494 375 -5 c206 -2 387 -7 401 -11z"/>
<path d="M2458 4870 c-4 -16 -4 -2700 1 -2701 3 -1 86 -2 184 -3 l177 -1 0
652 0 653 650 -653 650 -652 402 1 c222 1 408 2 414 3 7 1 10 195 9 629 0 345
1 634 3 642 3 14 82 15 665 15 l662 0 2 -633 c1 -349 4 -639 6 -646 3 -8 55
-11 183 -11 l179 0 0 1353 c1 743 -2 1353 -5 1353 -3 1 -83 2 -179 3 -124 1
-174 -1 -178 -10 -2 -6 -5 -256 -6 -555 l-2 -544 -662 0 c-581 0 -662 2 -665
15 -2 8 -3 257 -2 553 0 295 -2 538 -5 538 -3 1 -86 2 -183 3 l-178 1 0 -1342
0 -1341 -702 704 c-387 388 -704 708 -706 713 -2 6 220 222 298 291 10 8 80
74 156 146 77 72 151 142 165 155 26 24 245 230 389 365 41 39 102 96 135 127
133 124 185 173 185 178 0 2 -105 4 -233 4 l-234 0 -79 -77 c-43 -42 -95 -91
-114 -108 -19 -18 -93 -88 -165 -155 -71 -68 -143 -135 -160 -150 -16 -15 -66
-62 -110 -104 -75 -71 -284 -267 -485 -456 -47 -44 -87 -84 -90 -90 -3 -5 -7
249 -10 565 l-5 575 -177 0 c-98 1 -179 -2 -180 -5z"/>
</g>
</svg>
